<?xml version="1.0" encoding="UTF-8" standalone="no"?>
<!DOCTYPE svg PUBLIC "-//W3C//DTD SVG 1.1//EN" "http://www.w3.org/Graphics/SVG/1.1/DTD/svg11.dtd">
<!-- Generated by Microsoft Visio, SVG Export FuncionamientoHECRAS.svg Page-1 -->
<svg xmlns="http://www.w3.org/2000/svg" xmlns:xlink="http://www.w3.org/1999/xlink" xmlns:ev="http://www.w3.org/2001/xml-events"
		xmlns:v="http://schemas.microsoft.com/visio/2003/SVGExtensions/" width="8.02353in" height="4.63475in"
		viewBox="0 0 577.694 333.702" xml:space="preserve" color-interpolation-filters="sRGB" class="st7">
	<v:documentProperties v:langID="1033" v:viewMarkup="false"/>

	<style type="text/css">
	<![CDATA[
		.st1 {fill:#f2f2f2;stroke:#696368;stroke-width:1.5}
		.st2 {fill:#696368;fill-opacity:1;stroke:#696368;stroke-opacity:1;stroke-width:0.37313432835821}
		.st3 {fill:#000000;font-family:Segoe UI;font-size:0.666664em}
		.st4 {font-size:1em}
		.st5 {marker-end:url(#mrkr6-54);stroke:#7f7f7f;stroke-linecap:round;stroke-linejoin:round;stroke-width:0.5}
		.st6 {fill:#7f7f7f;fill-opacity:1;stroke:#7f7f7f;stroke-opacity:1;stroke-width:0.25773195876289}
		.st7 {fill:none;fill-rule:evenodd;font-size:12px;overflow:visible;stroke-linecap:square;stroke-miterlimit:3}
	]]>
	</style>

	<defs id="Markers">
		<g id="lend6">
			<path d="M 2 1 L 0 0 L 2.01237 -1.00641 C 2.32921 -0.372876 2.32921 0.372869 2.01238 1.0064 " style="stroke:none"/>
		</g>
		<marker id="mrkr6-4" class="st2" v:arrowType="6" v:arrowSize="2" v:setback="6.03" refX="6.03" orient="auto"
				markerUnits="strokeWidth" overflow="visible">
			<use xlink:href="#lend6" transform="scale(2.68) "/>
		</marker>
		<marker id="mrkr6-54" class="st6" v:arrowType="6" v:arrowSize="0" v:setback="8.73" refX="-8.73" orient="auto"
				markerUnits="strokeWidth" overflow="visible">
			<use xlink:href="#lend6" transform="scale(-3.88,-3.88) "/>
		</marker>
	</defs>
	<g v:mID="0" v:index="1" v:groupContext="foregroundPage">
		<title>Page-1</title>
		<v:pageProperties v:drawingScale="1" v:pageScale="1" v:drawingUnits="19" v:shadowOffsetX="8.50394"
				v:shadowOffsetY="-8.50394"/>
		<v:layer v:name="Connector" v:index="0"/>
		<g id="shape27-1" v:mID="27" v:groupContext="shape" transform="translate(9.84707,-219.186)">
			<title>Rounded Rectangle.27</title>
			<desc>Cálculo de características hidráulicas</desc>
			<v:userDefs>
				<v:ud v:nameU="CTypeTopLeftSnip" v:prompt="" v:val="VT0(0):5"/>
				<v:ud v:nameU="CTypeTopRightSnip" v:prompt="" v:val="VT0(0):5"/>
				<v:ud v:nameU="CTypeBotLeftSnip" v:prompt="" v:val="VT0(0):5"/>
				<v:ud v:nameU="CTypeBotRightSnip" v:prompt="" v:val="VT0(0):5"/>
				<v:ud v:nameU="CornerLockHoriz" v:prompt="" v:val="VT0(1):5"/>
				<v:ud v:nameU="CornerLockVert" v:prompt="" v:val="VT0(1):5"/>
				<v:ud v:nameU="CornerLockDiag" v:prompt="" v:val="VT0(0):5"/>
				<v:ud v:nameU="TopLeftOffset" v:prompt="" v:val="VT0(0.15748031496063):24"/>
				<v:ud v:nameU="TopRightOffset" v:prompt="" v:val="VT0(0.15748031496063):24"/>
				<v:ud v:nameU="BotLeftOffset" v:prompt="" v:val="VT0(0.15748031496063):24"/>
				<v:ud v:nameU="BotRightOffset" v:prompt="" v:val="VT0(0.15748031496063):24"/>
				<v:ud v:nameU="visVersion" v:prompt="" v:val="VT0(15):26"/>
				<v:ud v:nameU="TopLeftOffset" v:prompt="" v:val="VT0(0.15748031496063):1"/>
				<v:ud v:nameU="TopRightOffset" v:prompt="" v:val="VT0(0.15748031496063):1"/>
				<v:ud v:nameU="BotLeftOffset" v:prompt="" v:val="VT0(0.15748031496063):1"/>
				<v:ud v:nameU="BotRightOffset" v:prompt="" v:val="VT0(0.15748031496063):1"/>
			</v:userDefs>
			<v:textBlock v:margins="rect(4,4,4,4)"/>
			<v:textRect cx="65.1" cy="322.363" width="130.21" height="22.6772"/>
			<path d="M11.34 333.7 L118.86 333.7 A11.3384 11.3384 -180 0 0 130.2 322.36 A11.3384 11.3384 -180 0 0 118.86 311.02 L11.34
						 311.02 A11.3384 11.3384 -180 0 0 0 322.36 A11.3384 11.3384 -180 0 0 11.34 333.7 Z" class="st1"/>
			<text x="20.99" y="319.96" class="st3" v:langID="1033"><v:paragraph v:horizAlign="1"/><v:tabList/>Cálculo de características <tspan
						x="46.31" dy="1.2em" class="st4">hidráulicas</tspan></text>		</g>
		<g id="shape28-7" v:mID="28" v:groupContext="shape" transform="translate(189.226,-301.178)">
			<title>Rounded Rectangle.28</title>
			<desc>Capacidad total de transporte de sedimentos (Tc)</desc>
			<v:userDefs>
				<v:ud v:nameU="CTypeTopLeftSnip" v:prompt="" v:val="VT0(0):5"/>
				<v:ud v:nameU="CTypeTopRightSnip" v:prompt="" v:val="VT0(0):5"/>
				<v:ud v:nameU="CTypeBotLeftSnip" v:prompt="" v:val="VT0(0):5"/>
				<v:ud v:nameU="CTypeBotRightSnip" v:prompt="" v:val="VT0(0):5"/>
				<v:ud v:nameU="CornerLockHoriz" v:prompt="" v:val="VT0(1):5"/>
				<v:ud v:nameU="CornerLockVert" v:prompt="" v:val="VT0(1):5"/>
				<v:ud v:nameU="CornerLockDiag" v:prompt="" v:val="VT0(0):5"/>
				<v:ud v:nameU="TopLeftOffset" v:prompt="" v:val="VT0(0.15748031496063):24"/>
				<v:ud v:nameU="TopRightOffset" v:prompt="" v:val="VT0(0.15748031496063):24"/>
				<v:ud v:nameU="BotLeftOffset" v:prompt="" v:val="VT0(0.15748031496063):24"/>
				<v:ud v:nameU="BotRightOffset" v:prompt="" v:val="VT0(0.15748031496063):24"/>
				<v:ud v:nameU="visVersion" v:prompt="" v:val="VT0(15):26"/>
				<v:ud v:nameU="TopLeftOffset" v:prompt="" v:val="VT0(0.15748031496063):1"/>
				<v:ud v:nameU="TopRightOffset" v:prompt="" v:val="VT0(0.15748031496063):1"/>
				<v:ud v:nameU="BotLeftOffset" v:prompt="" v:val="VT0(0.15748031496063):1"/>
				<v:ud v:nameU="BotRightOffset" v:prompt="" v:val="VT0(0.15748031496063):1"/>
			</v:userDefs>
			<v:textBlock v:margins="rect(4,4,4,4)"/>
			<v:textRect cx="62.0353" cy="322.363" width="124.08" height="22.6772"/>
			<path d="M11.34 333.7 L112.73 333.7 A11.3384 11.3384 -180 0 0 124.07 322.36 A11.3384 11.3384 -180 0 0 112.73 311.02 L11.34
						 311.02 A11.3384 11.3384 -180 0 0 0 322.36 A11.3384 11.3384 -180 0 0 11.34 333.7 Z" class="st1"/>
			<text x="9.51" y="319.96" class="st3" v:langID="1033"><v:paragraph v:horizAlign="1"/><v:tabList/>Capacidad total de transporte <tspan
						x="28.73" dy="1.2em" class="st4">de sedimentos (Tc)</tspan></text>		</g>
		<g id="shape30-12" v:mID="30" v:groupContext="shape" transform="translate(375.976,-246.186)">
			<title>Rounded Rectangle.30</title>
			<desc>Comparación Qs(in) y Tc</desc>
			<v:userDefs>
				<v:ud v:nameU="CTypeTopLeftSnip" v:prompt="" v:val="VT0(0):5"/>
				<v:ud v:nameU="CTypeTopRightSnip" v:prompt="" v:val="VT0(0):5"/>
				<v:ud v:nameU="CTypeBotLeftSnip" v:prompt="" v:val="VT0(0):5"/>
				<v:ud v:nameU="CTypeBotRightSnip" v:prompt="" v:val="VT0(0):5"/>
				<v:ud v:nameU="CornerLockHoriz" v:prompt="" v:val="VT0(1):5"/>
				<v:ud v:nameU="CornerLockVert" v:prompt="" v:val="VT0(1):5"/>
				<v:ud v:nameU="CornerLockDiag" v:prompt="" v:val="VT0(0):5"/>
				<v:ud v:nameU="TopLeftOffset" v:prompt="" v:val="VT0(0.15748031496063):24"/>
				<v:ud v:nameU="TopRightOffset" v:prompt="" v:val="VT0(0.15748031496063):24"/>
				<v:ud v:nameU="BotLeftOffset" v:prompt="" v:val="VT0(0.15748031496063):24"/>
				<v:ud v:nameU="BotRightOffset" v:prompt="" v:val="VT0(0.15748031496063):24"/>
				<v:ud v:nameU="visVersion" v:prompt="" v:val="VT0(15):26"/>
				<v:ud v:nameU="TopLeftOffset" v:prompt="" v:val="VT0(0.15748031496063):1"/>
				<v:ud v:nameU="TopRightOffset" v:prompt="" v:val="VT0(0.15748031496063):1"/>
				<v:ud v:nameU="BotLeftOffset" v:prompt="" v:val="VT0(0.15748031496063):1"/>
				<v:ud v:nameU="BotRightOffset" v:prompt="" v:val="VT0(0.15748031496063):1"/>
			</v:userDefs>
			<v:textBlock v:margins="rect(4,4,4,4)"/>
			<v:textRect cx="62.0353" cy="322.363" width="124.08" height="22.6772"/>
			<path d="M11.34 333.7 L112.73 333.7 A11.3384 11.3384 -180 0 0 124.07 322.36 A11.3384 11.3384 -180 0 0 112.73 311.02 L11.34
						 311.02 A11.3384 11.3384 -180 0 0 0 322.36 A11.3384 11.3384 -180 0 0 11.34 333.7 Z" class="st1"/>
			<text x="19.01" y="324.76" class="st3" v:langID="1033"><v:paragraph v:horizAlign="1"/><v:tabList/>Comparación Qs(in) y Tc</text>		</g>
		<g id="shape31-16" v:mID="31" v:groupContext="shape" transform="translate(308.476,-192.186)">
			<title>Rounded Rectangle.31</title>
			<desc>Qs(in) &#62; Tc (sedimentación)</desc>
			<v:userDefs>
				<v:ud v:nameU="CTypeTopLeftSnip" v:prompt="" v:val="VT0(0):5"/>
				<v:ud v:nameU="CTypeTopRightSnip" v:prompt="" v:val="VT0(0):5"/>
				<v:ud v:nameU="CTypeBotLeftSnip" v:prompt="" v:val="VT0(0):5"/>
				<v:ud v:nameU="CTypeBotRightSnip" v:prompt="" v:val="VT0(0):5"/>
				<v:ud v:nameU="CornerLockHoriz" v:prompt="" v:val="VT0(1):5"/>
				<v:ud v:nameU="CornerLockVert" v:prompt="" v:val="VT0(1):5"/>
				<v:ud v:nameU="CornerLockDiag" v:prompt="" v:val="VT0(0):5"/>
				<v:ud v:nameU="TopLeftOffset" v:prompt="" v:val="VT0(0.15748031496063):24"/>
				<v:ud v:nameU="TopRightOffset" v:prompt="" v:val="VT0(0.15748031496063):24"/>
				<v:ud v:nameU="BotLeftOffset" v:prompt="" v:val="VT0(0.15748031496063):24"/>
				<v:ud v:nameU="BotRightOffset" v:prompt="" v:val="VT0(0.15748031496063):24"/>
				<v:ud v:nameU="visVersion" v:prompt="" v:val="VT0(15):26"/>
				<v:ud v:nameU="TopLeftOffset" v:prompt="" v:val="VT0(0.15748031496063):1"/>
				<v:ud v:nameU="TopRightOffset" v:prompt="" v:val="VT0(0.15748031496063):1"/>
				<v:ud v:nameU="BotLeftOffset" v:prompt="" v:val="VT0(0.15748031496063):1"/>
				<v:ud v:nameU="BotRightOffset" v:prompt="" v:val="VT0(0.15748031496063):1"/>
			</v:userDefs>
			<v:textBlock v:margins="rect(4,4,4,4)"/>
			<v:textRect cx="54" cy="322.363" width="108" height="22.6772"/>
			<path d="M11.34 333.7 L96.66 333.7 A11.3384 11.3384 -180 0 0 108 322.36 A11.3384 11.3384 -180 0 0 96.66 311.02 L11.34
						 311.02 A11.3384 11.3384 -180 0 0 0 322.36 A11.3384 11.3384 -180 0 0 11.34 333.7 Z" class="st1"/>
			<text x="34.77" y="319.96" class="st3" v:langID="1033"><v:paragraph v:horizAlign="1"/><v:tabList/>Qs(in) &#62; Tc<v:newlineChar/><tspan
						x="25.86" dy="1.2em" class="st4">(sedimentación)</tspan></text>		</g>
		<g id="shape32-21" v:mID="32" v:groupContext="shape" transform="translate(459.847,-192.186)">
			<title>Rounded Rectangle.32</title>
			<desc>Qs(in) &#60; Tc (erosión)</desc>
			<v:userDefs>
				<v:ud v:nameU="CTypeTopLeftSnip" v:prompt="" v:val="VT0(0):5"/>
				<v:ud v:nameU="CTypeTopRightSnip" v:prompt="" v:val="VT0(0):5"/>
				<v:ud v:nameU="CTypeBotLeftSnip" v:prompt="" v:val="VT0(0):5"/>
				<v:ud v:nameU="CTypeBotRightSnip" v:prompt="" v:val="VT0(0):5"/>
				<v:ud v:nameU="CornerLockHoriz" v:prompt="" v:val="VT0(1):5"/>
				<v:ud v:nameU="CornerLockVert" v:prompt="" v:val="VT0(1):5"/>
				<v:ud v:nameU="CornerLockDiag" v:prompt="" v:val="VT0(0):5"/>
				<v:ud v:nameU="TopLeftOffset" v:prompt="" v:val="VT0(0.15748031496063):24"/>
				<v:ud v:nameU="TopRightOffset" v:prompt="" v:val="VT0(0.15748031496063):24"/>
				<v:ud v:nameU="BotLeftOffset" v:prompt="" v:val="VT0(0.15748031496063):24"/>
				<v:ud v:nameU="BotRightOffset" v:prompt="" v:val="VT0(0.15748031496063):24"/>
				<v:ud v:nameU="visVersion" v:prompt="" v:val="VT0(15):26"/>
				<v:ud v:nameU="TopLeftOffset" v:prompt="" v:val="VT0(0.15748031496063):1"/>
				<v:ud v:nameU="TopRightOffset" v:prompt="" v:val="VT0(0.15748031496063):1"/>
				<v:ud v:nameU="BotLeftOffset" v:prompt="" v:val="VT0(0.15748031496063):1"/>
				<v:ud v:nameU="BotRightOffset" v:prompt="" v:val="VT0(0.15748031496063):1"/>
			</v:userDefs>
			<v:textBlock v:margins="rect(4,4,4,4)"/>
			<v:textRect cx="54" cy="322.363" width="108" height="22.6772"/>
			<path d="M11.34 333.7 L96.66 333.7 A11.3384 11.3384 -180 0 0 108 322.36 A11.3384 11.3384 -180 0 0 96.66 311.02 L11.34
						 311.02 A11.3384 11.3384 -180 0 0 0 322.36 A11.3384 11.3384 -180 0 0 11.34 333.7 Z" class="st1"/>
			<text x="34.77" y="319.96" class="st3" v:langID="1033"><v:paragraph v:horizAlign="1"/><v:tabList/>Qs(in) &#60; Tc<v:newlineChar/><tspan
						x="38.49" dy="1.2em" class="st4">(erosión)</tspan></text>		</g>
		<g id="shape35-26" v:mID="35" v:groupContext="shape" transform="translate(308.476,-144.847)">
			<title>Rounded Rectangle.35</title>
			<desc>Método de velocidad de caída</desc>
			<v:userDefs>
				<v:ud v:nameU="CTypeTopLeftSnip" v:prompt="" v:val="VT0(0):5"/>
				<v:ud v:nameU="CTypeTopRightSnip" v:prompt="" v:val="VT0(0):5"/>
				<v:ud v:nameU="CTypeBotLeftSnip" v:prompt="" v:val="VT0(0):5"/>
				<v:ud v:nameU="CTypeBotRightSnip" v:prompt="" v:val="VT0(0):5"/>
				<v:ud v:nameU="CornerLockHoriz" v:prompt="" v:val="VT0(1):5"/>
				<v:ud v:nameU="CornerLockVert" v:prompt="" v:val="VT0(1):5"/>
				<v:ud v:nameU="CornerLockDiag" v:prompt="" v:val="VT0(0):5"/>
				<v:ud v:nameU="TopLeftOffset" v:prompt="" v:val="VT0(0.15748031496063):24"/>
				<v:ud v:nameU="TopRightOffset" v:prompt="" v:val="VT0(0.15748031496063):24"/>
				<v:ud v:nameU="BotLeftOffset" v:prompt="" v:val="VT0(0.15748031496063):24"/>
				<v:ud v:nameU="BotRightOffset" v:prompt="" v:val="VT0(0.15748031496063):24"/>
				<v:ud v:nameU="visVersion" v:prompt="" v:val="VT0(15):26"/>
				<v:ud v:nameU="TopLeftOffset" v:prompt="" v:val="VT0(0.15748031496063):1"/>
				<v:ud v:nameU="TopRightOffset" v:prompt="" v:val="VT0(0.15748031496063):1"/>
				<v:ud v:nameU="BotLeftOffset" v:prompt="" v:val="VT0(0.15748031496063):1"/>
				<v:ud v:nameU="BotRightOffset" v:prompt="" v:val="VT0(0.15748031496063):1"/>
			</v:userDefs>
			<v:textBlock v:margins="rect(4,4,4,4)"/>
			<v:textRect cx="54" cy="322.363" width="108" height="22.6772"/>
			<path d="M11.34 333.7 L96.66 333.7 A11.3384 11.3384 -180 0 0 108 322.36 A11.3384 11.3384 -180 0 0 96.66 311.02 L11.34
						 311.02 A11.3384 11.3384 -180 0 0 0 322.36 A11.3384 11.3384 -180 0 0 11.34 333.7 Z" class="st1"/>
			<text x="10.85" y="319.96" class="st3" v:langID="1033"><v:paragraph v:horizAlign="1"/><v:tabList/>Método de velocidad de <tspan
						x="44.76" dy="1.2em" class="st4">caída</tspan></text>		</g>
		<g id="shape36-31" v:mID="36" v:groupContext="shape" transform="translate(459.847,-144.847)">
			<title>Rounded Rectangle.36</title>
			<desc>Método de acorazamiento</desc>
			<v:userDefs>
				<v:ud v:nameU="CTypeTopLeftSnip" v:prompt="" v:val="VT0(0):5"/>
				<v:ud v:nameU="CTypeTopRightSnip" v:prompt="" v:val="VT0(0):5"/>
				<v:ud v:nameU="CTypeBotLeftSnip" v:prompt="" v:val="VT0(0):5"/>
				<v:ud v:nameU="CTypeBotRightSnip" v:prompt="" v:val="VT0(0):5"/>
				<v:ud v:nameU="CornerLockHoriz" v:prompt="" v:val="VT0(1):5"/>
				<v:ud v:nameU="CornerLockVert" v:prompt="" v:val="VT0(1):5"/>
				<v:ud v:nameU="CornerLockDiag" v:prompt="" v:val="VT0(0):5"/>
				<v:ud v:nameU="TopLeftOffset" v:prompt="" v:val="VT0(0.15748031496063):24"/>
				<v:ud v:nameU="TopRightOffset" v:prompt="" v:val="VT0(0.15748031496063):24"/>
				<v:ud v:nameU="BotLeftOffset" v:prompt="" v:val="VT0(0.15748031496063):24"/>
				<v:ud v:nameU="BotRightOffset" v:prompt="" v:val="VT0(0.15748031496063):24"/>
				<v:ud v:nameU="visVersion" v:prompt="" v:val="VT0(15):26"/>
				<v:ud v:nameU="TopLeftOffset" v:prompt="" v:val="VT0(0.15748031496063):1"/>
				<v:ud v:nameU="TopRightOffset" v:prompt="" v:val="VT0(0.15748031496063):1"/>
				<v:ud v:nameU="BotLeftOffset" v:prompt="" v:val="VT0(0.15748031496063):1"/>
				<v:ud v:nameU="BotRightOffset" v:prompt="" v:val="VT0(0.15748031496063):1"/>
			</v:userDefs>
			<v:textBlock v:margins="rect(4,4,4,4)"/>
			<v:textRect cx="54" cy="322.363" width="108" height="22.6772"/>
			<path d="M11.34 333.7 L96.66 333.7 A11.3384 11.3384 -180 0 0 108 322.36 A11.3384 11.3384 -180 0 0 96.66 311.02 L11.34
						 311.02 A11.3384 11.3384 -180 0 0 0 322.36 A11.3384 11.3384 -180 0 0 11.34 333.7 Z" class="st1"/>
			<text x="7.31" y="324.76" class="st3" v:langID="1033"><v:paragraph v:horizAlign="1"/><v:tabList/>Método de acorazamiento</text>		</g>
		<g id="shape37-35" v:mID="37" v:groupContext="shape" transform="translate(387.847,-84.1856)">
			<title>Rounded Rectangle.37</title>
			<desc>Obtención Qs(out)</desc>
			<v:userDefs>
				<v:ud v:nameU="CTypeTopLeftSnip" v:prompt="" v:val="VT0(0):5"/>
				<v:ud v:nameU="CTypeTopRightSnip" v:prompt="" v:val="VT0(0):5"/>
				<v:ud v:nameU="CTypeBotLeftSnip" v:prompt="" v:val="VT0(0):5"/>
				<v:ud v:nameU="CTypeBotRightSnip" v:prompt="" v:val="VT0(0):5"/>
				<v:ud v:nameU="CornerLockHoriz" v:prompt="" v:val="VT0(1):5"/>
				<v:ud v:nameU="CornerLockVert" v:prompt="" v:val="VT0(1):5"/>
				<v:ud v:nameU="CornerLockDiag" v:prompt="" v:val="VT0(0):5"/>
				<v:ud v:nameU="TopLeftOffset" v:prompt="" v:val="VT0(0.15748031496063):24"/>
				<v:ud v:nameU="TopRightOffset" v:prompt="" v:val="VT0(0.15748031496063):24"/>
				<v:ud v:nameU="BotLeftOffset" v:prompt="" v:val="VT0(0.15748031496063):24"/>
				<v:ud v:nameU="BotRightOffset" v:prompt="" v:val="VT0(0.15748031496063):24"/>
				<v:ud v:nameU="visVersion" v:prompt="" v:val="VT0(15):26"/>
				<v:ud v:nameU="TopLeftOffset" v:prompt="" v:val="VT0(0.15748031496063):1"/>
				<v:ud v:nameU="TopRightOffset" v:prompt="" v:val="VT0(0.15748031496063):1"/>
				<v:ud v:nameU="BotLeftOffset" v:prompt="" v:val="VT0(0.15748031496063):1"/>
				<v:ud v:nameU="BotRightOffset" v:prompt="" v:val="VT0(0.15748031496063):1"/>
			</v:userDefs>
			<v:textBlock v:margins="rect(4,4,4,4)"/>
			<v:textRect cx="54" cy="322.363" width="108" height="22.6772"/>
			<path d="M11.34 333.7 L96.66 333.7 A11.3384 11.3384 -180 0 0 108 322.36 A11.3384 11.3384 -180 0 0 96.66 311.02 L11.34
						 311.02 A11.3384 11.3384 -180 0 0 0 322.36 A11.3384 11.3384 -180 0 0 11.34 333.7 Z" class="st1"/>
			<text x="21.31" y="324.76" class="st3" v:langID="1033"><v:paragraph v:horizAlign="1"/><v:tabList/>Obtención Qs(out)</text>		</g>
		<g id="shape38-39" v:mID="38" v:groupContext="shape" transform="translate(203.647,-9.84707)">
			<title>Rounded Rectangle.38</title>
			<desc>Determinación ΔV (Ecuación de Exner)</desc>
			<v:userDefs>
				<v:ud v:nameU="CTypeTopLeftSnip" v:prompt="" v:val="VT0(0):5"/>
				<v:ud v:nameU="CTypeTopRightSnip" v:prompt="" v:val="VT0(0):5"/>
				<v:ud v:nameU="CTypeBotLeftSnip" v:prompt="" v:val="VT0(0):5"/>
				<v:ud v:nameU="CTypeBotRightSnip" v:prompt="" v:val="VT0(0):5"/>
				<v:ud v:nameU="CornerLockHoriz" v:prompt="" v:val="VT0(1):5"/>
				<v:ud v:nameU="CornerLockVert" v:prompt="" v:val="VT0(1):5"/>
				<v:ud v:nameU="CornerLockDiag" v:prompt="" v:val="VT0(0):5"/>
				<v:ud v:nameU="TopLeftOffset" v:prompt="" v:val="VT0(0.15748031496063):24"/>
				<v:ud v:nameU="TopRightOffset" v:prompt="" v:val="VT0(0.15748031496063):24"/>
				<v:ud v:nameU="BotLeftOffset" v:prompt="" v:val="VT0(0.15748031496063):24"/>
				<v:ud v:nameU="BotRightOffset" v:prompt="" v:val="VT0(0.15748031496063):24"/>
				<v:ud v:nameU="visVersion" v:prompt="" v:val="VT0(15):26"/>
				<v:ud v:nameU="TopLeftOffset" v:prompt="" v:val="VT0(0.15748031496063):1"/>
				<v:ud v:nameU="TopRightOffset" v:prompt="" v:val="VT0(0.15748031496063):1"/>
				<v:ud v:nameU="BotLeftOffset" v:prompt="" v:val="VT0(0.15748031496063):1"/>
				<v:ud v:nameU="BotRightOffset" v:prompt="" v:val="VT0(0.15748031496063):1"/>
			</v:userDefs>
			<v:textBlock v:margins="rect(4,4,4,4)"/>
			<v:textRect cx="65.1" cy="322.363" width="130.21" height="22.6772"/>
			<path d="M11.34 333.7 L118.86 333.7 A11.3384 11.3384 -180 0 0 130.2 322.36 A11.3384 11.3384 -180 0 0 118.86 311.02 L11.34
						 311.02 A11.3384 11.3384 -180 0 0 0 322.36 A11.3384 11.3384 -180 0 0 11.34 333.7 Z" class="st1"/>
			<text x="9.63" y="319.96" class="st3" v:langID="1033"><v:paragraph v:horizAlign="1"/><v:tabList/>Determinación ΔV (Ecuación de <tspan
						x="54.29" dy="1.2em" class="st4">Exner)</tspan></text>		</g>
		<g id="shape39-44" v:mID="39" v:groupContext="shape" transform="translate(9.84707,-117.847)">
			<title>Rounded Rectangle.39</title>
			<desc>Actualización de la sección transversal</desc>
			<v:userDefs>
				<v:ud v:nameU="CTypeTopLeftSnip" v:prompt="" v:val="VT0(0):5"/>
				<v:ud v:nameU="CTypeTopRightSnip" v:prompt="" v:val="VT0(0):5"/>
				<v:ud v:nameU="CTypeBotLeftSnip" v:prompt="" v:val="VT0(0):5"/>
				<v:ud v:nameU="CTypeBotRightSnip" v:prompt="" v:val="VT0(0):5"/>
				<v:ud v:nameU="CornerLockHoriz" v:prompt="" v:val="VT0(1):5"/>
				<v:ud v:nameU="CornerLockVert" v:prompt="" v:val="VT0(1):5"/>
				<v:ud v:nameU="CornerLockDiag" v:prompt="" v:val="VT0(0):5"/>
				<v:ud v:nameU="TopLeftOffset" v:prompt="" v:val="VT0(0.15748031496063):24"/>
				<v:ud v:nameU="TopRightOffset" v:prompt="" v:val="VT0(0.15748031496063):24"/>
				<v:ud v:nameU="BotLeftOffset" v:prompt="" v:val="VT0(0.15748031496063):24"/>
				<v:ud v:nameU="BotRightOffset" v:prompt="" v:val="VT0(0.15748031496063):24"/>
				<v:ud v:nameU="visVersion" v:prompt="" v:val="VT0(15):26"/>
				<v:ud v:nameU="TopLeftOffset" v:prompt="" v:val="VT0(0.15748031496063):1"/>
				<v:ud v:nameU="TopRightOffset" v:prompt="" v:val="VT0(0.15748031496063):1"/>
				<v:ud v:nameU="BotLeftOffset" v:prompt="" v:val="VT0(0.15748031496063):1"/>
				<v:ud v:nameU="BotRightOffset" v:prompt="" v:val="VT0(0.15748031496063):1"/>
			</v:userDefs>
			<v:textBlock v:margins="rect(4,4,4,4)"/>
			<v:textRect cx="65.1" cy="322.363" width="130.21" height="22.6772"/>
			<path d="M11.34 333.7 L118.86 333.7 A11.3384 11.3384 -180 0 0 130.2 322.36 A11.3384 11.3384 -180 0 0 118.86 311.02 L11.34
						 311.02 A11.3384 11.3384 -180 0 0 0 322.36 A11.3384 11.3384 -180 0 0 11.34 333.7 Z" class="st1"/>
			<text x="18.01" y="319.96" class="st3" v:langID="1033"><v:paragraph v:horizAlign="1"/><v:tabList/>Actualización de la sección <tspan
						x="46.26" dy="1.2em" class="st4">transversal</tspan></text>		</g>
		<g id="shape40-49" v:mID="40" v:groupContext="shape" v:layerMember="0" transform="translate(74.9471,-241.863)">
			<title>Dynamic connector.40</title>
			<path d="M0 333.7 L0 298.38 A35.3268 35.3268 0 0 1 35.33 263.05 L109.91 263.05" class="st5"/>
		</g>
		<g id="shape41-55" v:mID="41" v:groupContext="shape" v:layerMember="0" transform="translate(313.297,-312.516)">
			<title>Dynamic connector.41</title>
			<path d="M0 333.7 L102.89 333.7 A21.8268 21.8268 0 0 1 124.71 355.53 L124.71 372.99" class="st5"/>
		</g>
		<g id="shape42-60" v:mID="42" v:groupContext="shape" v:layerMember="0" transform="translate(438.012,-246.186)">
			<title>Dynamic connector.42</title>
			<path d="M0 333.7 L0 340.45 A6.75 6.75 0 0 1 -6.75 347.2 L-66.62 347.2 A8.91142 8.91142 -180 0 0 -75.54 356.11 L-75.54
						 360.66" class="st5"/>
		</g>
		<g id="shape43-65" v:mID="43" v:groupContext="shape" v:layerMember="0" transform="translate(438.012,-246.186)">
			<title>Dynamic connector.43</title>
			<path d="M0 333.7 L0 340.45 A6.75 6.75 -180 0 0 6.75 347.2 L66.92 347.2 A8.91142 8.91142 0 0 1 75.84 356.11 L75.84 360.66"
					class="st5"/>
		</g>
		<g id="shape45-70" v:mID="45" v:groupContext="shape" v:layerMember="0" transform="translate(353.476,-192.186)">
			<title>Dynamic connector.45</title>
			<path d="M9 333.7 L9 354" class="st5"/>
		</g>
		<g id="shape46-75" v:mID="46" v:groupContext="shape" v:layerMember="0" transform="translate(504.847,-192.186)">
			<title>Dynamic connector.46</title>
			<path d="M9 333.7 L9 354" class="st5"/>
		</g>
		<g id="shape47-80" v:mID="47" v:groupContext="shape" v:layerMember="0" transform="translate(362.476,-144.847)">
			<title>Dynamic connector.47</title>
			<path d="M0 333.7 L0 340.45 A6.75 6.75 -180 0 0 6.75 347.2 L67.13 347.2 A12.2421 12.2421 0 0 1 79.37 359.44 L79.37 367.32"
					class="st5"/>
		</g>
		<g id="shape48-85" v:mID="48" v:groupContext="shape" v:layerMember="0" transform="translate(513.847,-144.847)">
			<title>Dynamic connector.48</title>
			<path d="M0 333.7 L0 340.45 A6.75 6.75 0 0 1 -6.75 347.2 L-59.76 347.2 A12.2421 12.2421 -180 0 0 -72 359.44 L-72 367.32"
					class="st5"/>
		</g>
		<g id="shape49-90" v:mID="49" v:groupContext="shape" v:layerMember="0" transform="translate(441.847,-84.1856)">
			<title>Dynamic connector.49</title>
			<path d="M0 333.7 L0 365.2 A31.5 31.5 0 0 1 -31.5 396.7 L-103.64 396.7" class="st5"/>
		</g>
		<g id="shape50-95" v:mID="50" v:groupContext="shape" v:layerMember="0" transform="translate(203.647,-21.1856)">
			<title>Dynamic connector.50</title>
			<path d="M0 333.7 L-80.37 333.7 A48.3307 48.3307 0 0 1 -128.7 285.37 L-128.7 241.41" class="st5"/>
		</g>
		<g id="shape51-100" v:mID="51" v:groupContext="shape" v:layerMember="0" transform="translate(65.9471,-140.524)">
			<title>Dynamic connector.51</title>
			<path d="M9 333.7 L9 259.41" class="st5"/>
		</g>
	</g>
</svg>
