<?xml version="1.0" encoding="UTF-8" standalone="no"?>
<!DOCTYPE svg PUBLIC "-//W3C//DTD SVG 1.1//EN" "http://www.w3.org/Graphics/SVG/1.1/DTD/svg11.dtd">
<!-- Generated by Microsoft Visio, SVG Export ModosTransporte.svg Page-1 -->
<svg xmlns="http://www.w3.org/2000/svg" xmlns:xlink="http://www.w3.org/1999/xlink" xmlns:ev="http://www.w3.org/2001/xml-events"
		xmlns:v="http://schemas.microsoft.com/visio/2003/SVGExtensions/" width="8.5in" height="11in" viewBox="0 0 612 792"
		xml:space="preserve" color-interpolation-filters="sRGB" class="st9">
	<v:documentProperties v:langID="1033" v:viewMarkup="false">
		<v:userDefs>
			<v:ud v:nameU="msvNoAutoConnect" v:val="VT0(1):26"/>
		</v:userDefs>
	</v:documentProperties>

	<style type="text/css">
	<![CDATA[
		.st1 {fill:#f2f2f2;stroke:#990000;stroke-width:1.5}
		.st2 {fill:#000000;font-family:Segoe UI;font-size:0.666664em}
		.st3 {font-size:1em}
		.st4 {fill:#f2f2f2;stroke:#696368;stroke-width:1.5}
		.st5 {fill:#696368;fill-opacity:1;stroke:#696368;stroke-opacity:1;stroke-width:0.37313432835821}
		.st6 {marker-end:url(#mrkr6-33);stroke:#7f7f7f;stroke-linecap:round;stroke-linejoin:round;stroke-width:0.5}
		.st7 {fill:#7f7f7f;fill-opacity:1;stroke:#7f7f7f;stroke-opacity:1;stroke-width:0.25773195876289}
		.st8 {marker-end:url(#mrkr6-33);stroke:#7f7f7f;stroke-dasharray:3.5,2.5;stroke-linecap:round;stroke-linejoin:round;stroke-width:0.5}
		.st9 {fill:none;fill-rule:evenodd;font-size:12px;overflow:visible;stroke-linecap:square;stroke-miterlimit:3}
	]]>
	</style>

	<defs id="Markers">
		<g id="lend6">
			<path d="M 2 1 L 0 0 L 2.01237 -1.00641 C 2.32921 -0.372876 2.32921 0.372869 2.01238 1.0064 " style="stroke:none"/>
		</g>
		<marker id="mrkr6-14" class="st5" v:arrowType="6" v:arrowSize="2" v:setback="6.03" refX="6.03" orient="auto"
				markerUnits="strokeWidth" overflow="visible">
			<use xlink:href="#lend6" transform="scale(2.68) "/>
		</marker>
		<marker id="mrkr6-33" class="st7" v:arrowType="6" v:arrowSize="0" v:setback="8.73" refX="-8.73" orient="auto"
				markerUnits="strokeWidth" overflow="visible">
			<use xlink:href="#lend6" transform="scale(-3.88,-3.88) "/>
		</marker>
	</defs>
	<g v:mID="0" v:index="1" v:groupContext="foregroundPage">
		<title>Page-1</title>
		<v:pageProperties v:drawingScale="1" v:pageScale="1" v:drawingUnits="19" v:shadowOffsetX="8.50394"
				v:shadowOffsetY="-8.50394"/>
		<v:layer v:name="Connector" v:index="0"/>
		<g id="shape1-1" v:mID="1" v:groupContext="shape" transform="translate(234,-499.323)">
			<title>Rounded Rectangle.251</title>
			<desc>Clasificaci贸n del transporte de sedimentos</desc>
			<v:userDefs>
				<v:ud v:nameU="CTypeTopLeftSnip" v:prompt="" v:val="VT0(0):5"/>
				<v:ud v:nameU="CTypeTopRightSnip" v:prompt="" v:val="VT0(0):5"/>
				<v:ud v:nameU="CTypeBotLeftSnip" v:prompt="" v:val="VT0(0):5"/>
				<v:ud v:nameU="CTypeBotRightSnip" v:prompt="" v:val="VT0(0):5"/>
				<v:ud v:nameU="CornerLockHoriz" v:prompt="" v:val="VT0(1):5"/>
				<v:ud v:nameU="CornerLockVert" v:prompt="" v:val="VT0(1):5"/>
				<v:ud v:nameU="CornerLockDiag" v:prompt="" v:val="VT0(0):5"/>
				<v:ud v:nameU="TopLeftOffset" v:prompt="" v:val="VT0(0.15748031496063):24"/>
				<v:ud v:nameU="TopRightOffset" v:prompt="" v:val="VT0(0.15748031496063):24"/>
				<v:ud v:nameU="BotLeftOffset" v:prompt="" v:val="VT0(0.15748031496063):24"/>
				<v:ud v:nameU="BotRightOffset" v:prompt="" v:val="VT0(0.15748031496063):24"/>
				<v:ud v:nameU="visVersion" v:prompt="" v:val="VT0(15):26"/>
				<v:ud v:nameU="TopLeftOffset" v:prompt="" v:val="VT0(0.15748031496063):1"/>
				<v:ud v:nameU="TopRightOffset" v:prompt="" v:val="VT0(0.15748031496063):1"/>
				<v:ud v:nameU="BotLeftOffset" v:prompt="" v:val="VT0(0.15748031496063):1"/>
				<v:ud v:nameU="BotRightOffset" v:prompt="" v:val="VT0(0.15748031496063):1"/>
			</v:userDefs>
			<v:textBlock v:margins="rect(2,2,2,2)"/>
			<v:textRect cx="67.5" cy="780.661" width="135" height="22.6772"/>
			<path d="M11.34 792 L123.66 792 A11.3384 11.3384 -180 0 0 135 780.66 A11.3384 11.3384 -180 0 0 123.66 769.32 L11.34 769.32
						 A11.3384 11.3384 -180 0 0 0 780.66 A11.3384 11.3384 -180 0 0 11.34 792 Z" class="st1"/>
			<text x="14.4" y="778.26" class="st2" v:langID="8202"><v:paragraph v:horizAlign="1"/><v:tabList/>Clasificaci贸n del transporte de <tspan
						x="47.19" dy="1.2em" class="st3">sedimentos</tspan></text>		</g>
		<g id="shape2-5" v:mID="2" v:groupContext="shape" transform="translate(144,-456.661)">
			<title>Rounded Rectangle.2</title>
			<desc>Origen del material</desc>
			<v:userDefs>
				<v:ud v:nameU="CTypeTopLeftSnip" v:prompt="" v:val="VT0(0):5"/>
				<v:ud v:nameU="CTypeTopRightSnip" v:prompt="" v:val="VT0(0):5"/>
				<v:ud v:nameU="CTypeBotLeftSnip" v:prompt="" v:val="VT0(0):5"/>
				<v:ud v:nameU="CTypeBotRightSnip" v:prompt="" v:val="VT0(0):5"/>
				<v:ud v:nameU="CornerLockHoriz" v:prompt="" v:val="VT0(1):5"/>
				<v:ud v:nameU="CornerLockVert" v:prompt="" v:val="VT0(1):5"/>
				<v:ud v:nameU="CornerLockDiag" v:prompt="" v:val="VT0(0):5"/>
				<v:ud v:nameU="TopLeftOffset" v:prompt="" v:val="VT0(0.15748031496063):24"/>
				<v:ud v:nameU="TopRightOffset" v:prompt="" v:val="VT0(0.15748031496063):24"/>
				<v:ud v:nameU="BotLeftOffset" v:prompt="" v:val="VT0(0.15748031496063):24"/>
				<v:ud v:nameU="BotRightOffset" v:prompt="" v:val="VT0(0.15748031496063):24"/>
				<v:ud v:nameU="visVersion" v:prompt="" v:val="VT0(15):26"/>
			</v:userDefs>
			<v:textBlock v:margins="rect(2,2,2,2)"/>
			<v:textRect cx="62.0353" cy="780.661" width="124.08" height="22.6772"/>
			<path d="M11.34 792 L112.73 792 A11.3384 11.3384 -180 0 0 124.07 780.66 A11.3384 11.3384 -180 0 0 112.73 769.32 L11.34
						 769.32 A11.3384 11.3384 -180 0 0 0 780.66 A11.3384 11.3384 -180 0 0 11.34 792 Z" class="st1"/>
			<text x="28.05" y="783.06" class="st2" v:langID="8202"><v:paragraph v:horizAlign="1"/><v:tabList/>Origen del material</text>		</g>
		<g id="shape3-8" v:mID="3" v:groupContext="shape" transform="translate(332.035,-456.661)">
			<title>Rounded Rectangle.3</title>
			<desc>Modo de transporte</desc>
			<v:userDefs>
				<v:ud v:nameU="CTypeTopLeftSnip" v:prompt="" v:val="VT0(0):5"/>
				<v:ud v:nameU="CTypeTopRightSnip" v:prompt="" v:val="VT0(0):5"/>
				<v:ud v:nameU="CTypeBotLeftSnip" v:prompt="" v:val="VT0(0):5"/>
				<v:ud v:nameU="CTypeBotRightSnip" v:prompt="" v:val="VT0(0):5"/>
				<v:ud v:nameU="CornerLockHoriz" v:prompt="" v:val="VT0(1):5"/>
				<v:ud v:nameU="CornerLockVert" v:prompt="" v:val="VT0(1):5"/>
				<v:ud v:nameU="CornerLockDiag" v:prompt="" v:val="VT0(0):5"/>
				<v:ud v:nameU="TopLeftOffset" v:prompt="" v:val="VT0(0.15748031496063):24"/>
				<v:ud v:nameU="TopRightOffset" v:prompt="" v:val="VT0(0.15748031496063):24"/>
				<v:ud v:nameU="BotLeftOffset" v:prompt="" v:val="VT0(0.15748031496063):24"/>
				<v:ud v:nameU="BotRightOffset" v:prompt="" v:val="VT0(0.15748031496063):24"/>
				<v:ud v:nameU="visVersion" v:prompt="" v:val="VT0(15):26"/>
			</v:userDefs>
			<v:textBlock v:margins="rect(2,2,2,2)"/>
			<v:textRect cx="62.0353" cy="780.661" width="124.08" height="22.6772"/>
			<path d="M11.34 792 L112.73 792 A11.3384 11.3384 -180 0 0 124.07 780.66 A11.3384 11.3384 -180 0 0 112.73 769.32 L11.34
						 769.32 A11.3384 11.3384 -180 0 0 0 780.66 A11.3384 11.3384 -180 0 0 11.34 792 Z" class="st1"/>
			<text x="26.49" y="783.06" class="st2" v:langID="8202"><v:paragraph v:horizAlign="1"/><v:tabList/>Modo de transporte</text>		</g>
		<g id="shape5-11" v:mID="5" v:groupContext="shape" transform="translate(166.35,-414)">
			<title>Rounded Rectangle.189</title>
			<desc>Lecho</desc>
			<v:userDefs>
				<v:ud v:nameU="CTypeTopLeftSnip" v:prompt="" v:val="VT0(0):5"/>
				<v:ud v:nameU="CTypeTopRightSnip" v:prompt="" v:val="VT0(0):5"/>
				<v:ud v:nameU="CTypeBotLeftSnip" v:prompt="" v:val="VT0(0):5"/>
				<v:ud v:nameU="CTypeBotRightSnip" v:prompt="" v:val="VT0(0):5"/>
				<v:ud v:nameU="CornerLockHoriz" v:prompt="" v:val="VT0(1):5"/>
				<v:ud v:nameU="CornerLockVert" v:prompt="" v:val="VT0(1):5"/>
				<v:ud v:nameU="CornerLockDiag" v:prompt="" v:val="VT0(0):5"/>
				<v:ud v:nameU="TopLeftOffset" v:prompt="" v:val="VT0(0.15748031496063):24"/>
				<v:ud v:nameU="TopRightOffset" v:prompt="" v:val="VT0(0.15748031496063):24"/>
				<v:ud v:nameU="BotLeftOffset" v:prompt="" v:val="VT0(0.15748031496063):24"/>
				<v:ud v:nameU="BotRightOffset" v:prompt="" v:val="VT0(0.15748031496063):24"/>
				<v:ud v:nameU="visVersion" v:prompt="" v:val="VT0(15):26"/>
			</v:userDefs>
			<v:textBlock v:margins="rect(4,4,4,4)"/>
			<v:textRect cx="39.685" cy="780.661" width="79.38" height="22.6772"/>
			<path d="M11.34 792 L68.03 792 A11.3384 11.3384 -180 0 0 79.37 780.66 A11.3384 11.3384 -180 0 0 68.03 769.32 L11.34 769.32
						 A11.3384 11.3384 -180 0 0 0 780.66 A11.3384 11.3384 -180 0 0 11.34 792 Z" class="st4"/>
			<text x="29.26" y="783.06" class="st2" v:langID="8202"><v:paragraph v:horizAlign="1"/><v:tabList/>Lecho</text>		</g>
		<g id="shape6-16" v:mID="6" v:groupContext="shape" transform="translate(166.35,-371.339)">
			<title>Rounded Rectangle.6</title>
			<desc>Cuenca</desc>
			<v:userDefs>
				<v:ud v:nameU="CTypeTopLeftSnip" v:prompt="" v:val="VT0(0):5"/>
				<v:ud v:nameU="CTypeTopRightSnip" v:prompt="" v:val="VT0(0):5"/>
				<v:ud v:nameU="CTypeBotLeftSnip" v:prompt="" v:val="VT0(0):5"/>
				<v:ud v:nameU="CTypeBotRightSnip" v:prompt="" v:val="VT0(0):5"/>
				<v:ud v:nameU="CornerLockHoriz" v:prompt="" v:val="VT0(1):5"/>
				<v:ud v:nameU="CornerLockVert" v:prompt="" v:val="VT0(1):5"/>
				<v:ud v:nameU="CornerLockDiag" v:prompt="" v:val="VT0(0):5"/>
				<v:ud v:nameU="TopLeftOffset" v:prompt="" v:val="VT0(0.15748031496063):24"/>
				<v:ud v:nameU="TopRightOffset" v:prompt="" v:val="VT0(0.15748031496063):24"/>
				<v:ud v:nameU="BotLeftOffset" v:prompt="" v:val="VT0(0.15748031496063):24"/>
				<v:ud v:nameU="BotRightOffset" v:prompt="" v:val="VT0(0.15748031496063):24"/>
				<v:ud v:nameU="visVersion" v:prompt="" v:val="VT0(15):26"/>
			</v:userDefs>
			<v:textBlock v:margins="rect(4,4,4,4)"/>
			<v:textRect cx="39.685" cy="780.661" width="79.38" height="22.6772"/>
			<path d="M11.34 792 L68.03 792 A11.3384 11.3384 -180 0 0 79.37 780.66 A11.3384 11.3384 -180 0 0 68.03 769.32 L11.34 769.32
						 A11.3384 11.3384 -180 0 0 0 780.66 A11.3384 11.3384 -180 0 0 11.34 792 Z" class="st4"/>
			<text x="26.71" y="783.06" class="st2" v:langID="8202"><v:paragraph v:horizAlign="1"/><v:tabList/>Cuenca</text>		</g>
		<g id="shape7-20" v:mID="7" v:groupContext="shape" transform="translate(354.386,-414)">
			<title>Rounded Rectangle.7</title>
			<desc>Arrastre</desc>
			<v:userDefs>
				<v:ud v:nameU="CTypeTopLeftSnip" v:prompt="" v:val="VT0(0):5"/>
				<v:ud v:nameU="CTypeTopRightSnip" v:prompt="" v:val="VT0(0):5"/>
				<v:ud v:nameU="CTypeBotLeftSnip" v:prompt="" v:val="VT0(0):5"/>
				<v:ud v:nameU="CTypeBotRightSnip" v:prompt="" v:val="VT0(0):5"/>
				<v:ud v:nameU="CornerLockHoriz" v:prompt="" v:val="VT0(1):5"/>
				<v:ud v:nameU="CornerLockVert" v:prompt="" v:val="VT0(1):5"/>
				<v:ud v:nameU="CornerLockDiag" v:prompt="" v:val="VT0(0):5"/>
				<v:ud v:nameU="TopLeftOffset" v:prompt="" v:val="VT0(0.15748031496063):24"/>
				<v:ud v:nameU="TopRightOffset" v:prompt="" v:val="VT0(0.15748031496063):24"/>
				<v:ud v:nameU="BotLeftOffset" v:prompt="" v:val="VT0(0.15748031496063):24"/>
				<v:ud v:nameU="BotRightOffset" v:prompt="" v:val="VT0(0.15748031496063):24"/>
				<v:ud v:nameU="visVersion" v:prompt="" v:val="VT0(15):26"/>
			</v:userDefs>
			<v:textBlock v:margins="rect(4,4,4,4)"/>
			<v:textRect cx="39.685" cy="780.661" width="79.38" height="22.6772"/>
			<path d="M11.34 792 L68.03 792 A11.3384 11.3384 -180 0 0 79.37 780.66 A11.3384 11.3384 -180 0 0 68.03 769.32 L11.34 769.32
						 A11.3384 11.3384 -180 0 0 0 780.66 A11.3384 11.3384 -180 0 0 11.34 792 Z" class="st4"/>
			<text x="25.75" y="783.06" class="st2" v:langID="8202"><v:paragraph v:horizAlign="1"/><v:tabList/>Arrastre</text>		</g>
		<g id="shape8-24" v:mID="8" v:groupContext="shape" transform="translate(354.386,-371.339)">
			<title>Rounded Rectangle.8</title>
			<desc>Suspensi贸n</desc>
			<v:userDefs>
				<v:ud v:nameU="CTypeTopLeftSnip" v:prompt="" v:val="VT0(0):5"/>
				<v:ud v:nameU="CTypeTopRightSnip" v:prompt="" v:val="VT0(0):5"/>
				<v:ud v:nameU="CTypeBotLeftSnip" v:prompt="" v:val="VT0(0):5"/>
				<v:ud v:nameU="CTypeBotRightSnip" v:prompt="" v:val="VT0(0):5"/>
				<v:ud v:nameU="CornerLockHoriz" v:prompt="" v:val="VT0(1):5"/>
				<v:ud v:nameU="CornerLockVert" v:prompt="" v:val="VT0(1):5"/>
				<v:ud v:nameU="CornerLockDiag" v:prompt="" v:val="VT0(0):5"/>
				<v:ud v:nameU="TopLeftOffset" v:prompt="" v:val="VT0(0.15748031496063):24"/>
				<v:ud v:nameU="TopRightOffset" v:prompt="" v:val="VT0(0.15748031496063):24"/>
				<v:ud v:nameU="BotLeftOffset" v:prompt="" v:val="VT0(0.15748031496063):24"/>
				<v:ud v:nameU="BotRightOffset" v:prompt="" v:val="VT0(0.15748031496063):24"/>
				<v:ud v:nameU="visVersion" v:prompt="" v:val="VT0(15):26"/>
			</v:userDefs>
			<v:textBlock v:margins="rect(4,4,4,4)"/>
			<v:textRect cx="39.685" cy="780.661" width="79.38" height="22.6772"/>
			<path d="M11.34 792 L68.03 792 A11.3384 11.3384 -180 0 0 79.37 780.66 A11.3384 11.3384 -180 0 0 68.03 769.32 L11.34 769.32
						 A11.3384 11.3384 -180 0 0 0 780.66 A11.3384 11.3384 -180 0 0 11.34 792 Z" class="st4"/>
			<text x="19.62" y="783.06" class="st2" v:langID="8202"><v:paragraph v:horizAlign="1"/><v:tabList/>Suspensi贸n</text>		</g>
		<g id="shape9-28" v:mID="9" v:groupContext="shape" v:layerMember="0" transform="translate(301.5,-499.323)">
			<title>Dynamic connector</title>
			<path d="M0 792 L0 795.37 A3.375 3.375 0 0 1 -3.37 798.75 L-88.85 798.75 A6.61713 6.61713 -180 0 0 -95.46 805.37 L-95.46
						 807.62" class="st6"/>
		</g>
		<g id="shape10-34" v:mID="10" v:groupContext="shape" v:layerMember="0" transform="translate(301.5,-499.323)">
			<title>Dynamic connector.10</title>
			<path d="M0 792 L0 795.37 A3.375 3.375 -180 0 0 3.38 798.75 L85.95 798.75 A6.61713 6.61713 0 0 1 92.57 805.37 L92.57
						 807.62" class="st6"/>
		</g>
		<g id="shape11-39" v:mID="11" v:groupContext="shape" v:layerMember="0" transform="translate(245.72,-416.339)">
			<title>Dynamic connector.11</title>
			<path d="M0 783 L104.3 783" class="st8"/>
		</g>
		<g id="shape12-44" v:mID="12" v:groupContext="shape" v:layerMember="0" transform="translate(245.72,-425.339)">
			<title>Dynamic connector.12</title>
			<path d="M0 792 L104.6 833.07" class="st8"/>
		</g>
		<g id="shape13-49" v:mID="13" v:groupContext="shape" v:layerMember="0" transform="translate(245.72,-373.677)">
			<title>Dynamic connector.13</title>
			<path d="M0 783 L104.3 783" class="st8"/>
		</g>
		<g id="shape23-54" v:mID="23" v:groupContext="shape" v:layerMember="0" transform="translate(144,-468)">
			<title>Dynamic connector.23</title>
			<path d="M0 792 L-6.75 792 A6.75 6.75 -180 0 0 -13.5 798.75 L-13.5 816.74 A17.9251 17.9251 -180 0 0 4.43 834.66 L17.99
						 834.66" class="st6"/>
		</g>
		<g id="shape24-59" v:mID="24" v:groupContext="shape" v:layerMember="0" transform="translate(144,-468)">
			<title>Dynamic connector.24</title>
			<path d="M0 792 L-6.75 792 A6.75 6.75 -180 0 0 -13.5 798.75 L-13.5 859.4 A17.9251 17.9251 -180 0 0 4.43 877.32 L17.99
						 877.32" class="st6"/>
		</g>
		<g id="shape25-64" v:mID="25" v:groupContext="shape" v:layerMember="0" transform="translate(456.106,-468)">
			<title>Dynamic connector.25</title>
			<path d="M0 792 L6.75 792 A6.75 6.75 0 0 1 13.5 798.75 L13.5 816.74 A17.9251 17.9251 0 0 1 -4.43 834.66 L-17.99 834.66"
					class="st6"/>
		</g>
		<g id="shape26-69" v:mID="26" v:groupContext="shape" v:layerMember="0" transform="translate(456.106,-468)">
			<title>Dynamic connector.26</title>
			<path d="M0 792 L6.75 792 A6.75 6.75 0 0 1 13.5 798.75 L13.5 859.4 A17.9251 17.9251 0 0 1 -4.43 877.32 L-17.99 877.32"
					class="st6"/>
		</g>
	</g>
</svg>
