<?xml version="1.0" encoding="UTF-8" standalone="no"?>
<!DOCTYPE svg PUBLIC "-//W3C//DTD SVG 1.1//EN" "http://www.w3.org/Graphics/SVG/1.1/DTD/svg11.dtd">
<!-- Generated by Microsoft Visio, SVG Export EcuacionesHECRAS.svg Page-1 -->
<svg xmlns="http://www.w3.org/2000/svg" xmlns:xlink="http://www.w3.org/1999/xlink" xmlns:ev="http://www.w3.org/2001/xml-events"
		xmlns:v="http://schemas.microsoft.com/visio/2003/SVGExtensions/" width="8.19971in" height="2.28752in"
		viewBox="0 0 590.379 164.701" xml:space="preserve" color-interpolation-filters="sRGB" class="st8">
	<v:documentProperties v:langID="1033" v:viewMarkup="false"/>

	<style type="text/css">
	<![CDATA[
		.st1 {fill:#f2f2f2;stroke:#990000;stroke-width:1.5}
		.st2 {fill:#000000;font-family:Segoe UI;font-size:0.666664em}
		.st3 {font-size:1em}
		.st4 {fill:#f2f2f2;stroke:#696368;stroke-width:1.5}
		.st5 {fill:#696368;fill-opacity:1;stroke:#696368;stroke-opacity:1;stroke-width:0.37313432835821}
		.st6 {marker-end:url(#mrkr6-23);stroke:#7f7f7f;stroke-linecap:round;stroke-linejoin:round;stroke-width:0.5}
		.st7 {fill:#7f7f7f;fill-opacity:1;stroke:#7f7f7f;stroke-opacity:1;stroke-width:0.25773195876289}
		.st8 {fill:none;fill-rule:evenodd;font-size:12px;overflow:visible;stroke-linecap:square;stroke-miterlimit:3}
	]]>
	</style>

	<defs id="Markers">
		<g id="lend6">
			<path d="M 2 1 L 0 0 L 2.01237 -1.00641 C 2.32921 -0.372876 2.32921 0.372869 2.01238 1.0064 " style="stroke:none"/>
		</g>
		<marker id="mrkr6-16" class="st5" v:arrowType="6" v:arrowSize="2" v:setback="6.03" refX="6.03" orient="auto"
				markerUnits="strokeWidth" overflow="visible">
			<use xlink:href="#lend6" transform="scale(2.68) "/>
		</marker>
		<marker id="mrkr6-23" class="st7" v:arrowType="6" v:arrowSize="0" v:setback="8.73" refX="-8.73" orient="auto"
				markerUnits="strokeWidth" overflow="visible">
			<use xlink:href="#lend6" transform="scale(-3.88,-3.88) "/>
		</marker>
	</defs>
	<g v:mID="0" v:index="1" v:groupContext="foregroundPage">
		<title>Page-1</title>
		<v:pageProperties v:drawingScale="1" v:pageScale="1" v:drawingUnits="19" v:shadowOffsetX="8.50394"
				v:shadowOffsetY="-8.50394"/>
		<v:layer v:name="Connector" v:index="0"/>
		<g id="shape1-1" v:mID="1" v:groupContext="shape" transform="translate(265.222,-140.524)">
			<title>Rounded Rectangle.251</title>
			<desc>Ecuaciones de transporte de sedimentos disponibles en HEC-RAS...</desc>
			<v:userDefs>
				<v:ud v:nameU="CTypeTopLeftSnip" v:prompt="" v:val="VT0(0):5"/>
				<v:ud v:nameU="CTypeTopRightSnip" v:prompt="" v:val="VT0(0):5"/>
				<v:ud v:nameU="CTypeBotLeftSnip" v:prompt="" v:val="VT0(0):5"/>
				<v:ud v:nameU="CTypeBotRightSnip" v:prompt="" v:val="VT0(0):5"/>
				<v:ud v:nameU="CornerLockHoriz" v:prompt="" v:val="VT0(1):5"/>
				<v:ud v:nameU="CornerLockVert" v:prompt="" v:val="VT0(1):5"/>
				<v:ud v:nameU="CornerLockDiag" v:prompt="" v:val="VT0(0):5"/>
				<v:ud v:nameU="TopLeftOffset" v:prompt="" v:val="VT0(0.15748031496063):24"/>
				<v:ud v:nameU="TopRightOffset" v:prompt="" v:val="VT0(0.15748031496063):24"/>
				<v:ud v:nameU="BotLeftOffset" v:prompt="" v:val="VT0(0.15748031496063):24"/>
				<v:ud v:nameU="BotRightOffset" v:prompt="" v:val="VT0(0.15748031496063):24"/>
				<v:ud v:nameU="visVersion" v:prompt="" v:val="VT0(15):26"/>
				<v:ud v:nameU="TopLeftOffset" v:prompt="" v:val="VT0(0.15748031496063):1"/>
				<v:ud v:nameU="TopRightOffset" v:prompt="" v:val="VT0(0.15748031496063):1"/>
				<v:ud v:nameU="BotLeftOffset" v:prompt="" v:val="VT0(0.15748031496063):1"/>
				<v:ud v:nameU="BotRightOffset" v:prompt="" v:val="VT0(0.15748031496063):1"/>
			</v:userDefs>
			<v:textBlock v:margins="rect(2,2,2,2)"/>
			<v:textRect cx="73.125" cy="153.363" width="146.25" height="22.6772"/>
			<path d="M11.34 164.7 L134.91 164.7 A11.3384 11.3384 -180 0 0 146.25 153.36 A11.3384 11.3384 -180 0 0 134.91 142.02 L11.34
						 142.02 A11.3384 11.3384 -180 0 0 0 153.36 A11.3384 11.3384 -180 0 0 11.34 164.7 Z" class="st1"/>
			<text x="23.29" y="150.96" class="st2" v:langID="8202"><v:paragraph v:horizAlign="1"/><v:tabList/>Ecuaciones de transporte de <tspan
						x="3.02" dy="1.2em" class="st3">sedimentos disponibles en HEC</tspan>-RAS<tspan class="st3" v:langID="1033"> </tspan><tspan
						class="st3" v:langID="1033">1D</tspan></text>		</g>
		<g id="shape2-7" v:mID="2" v:groupContext="shape" transform="translate(133.276,-90.9357)">
			<title>Rounded Rectangle.2</title>
			<desc>Transporte total</desc>
			<v:userDefs>
				<v:ud v:nameU="CTypeTopLeftSnip" v:prompt="" v:val="VT0(0):5"/>
				<v:ud v:nameU="CTypeTopRightSnip" v:prompt="" v:val="VT0(0):5"/>
				<v:ud v:nameU="CTypeBotLeftSnip" v:prompt="" v:val="VT0(0):5"/>
				<v:ud v:nameU="CTypeBotRightSnip" v:prompt="" v:val="VT0(0):5"/>
				<v:ud v:nameU="CornerLockHoriz" v:prompt="" v:val="VT0(1):5"/>
				<v:ud v:nameU="CornerLockVert" v:prompt="" v:val="VT0(1):5"/>
				<v:ud v:nameU="CornerLockDiag" v:prompt="" v:val="VT0(0):5"/>
				<v:ud v:nameU="TopLeftOffset" v:prompt="" v:val="VT0(0.15748031496063):24"/>
				<v:ud v:nameU="TopRightOffset" v:prompt="" v:val="VT0(0.15748031496063):24"/>
				<v:ud v:nameU="BotLeftOffset" v:prompt="" v:val="VT0(0.15748031496063):24"/>
				<v:ud v:nameU="BotRightOffset" v:prompt="" v:val="VT0(0.15748031496063):24"/>
				<v:ud v:nameU="visVersion" v:prompt="" v:val="VT0(15):26"/>
				<v:ud v:nameU="TopLeftOffset" v:prompt="" v:val="VT0(0.15748031496063):1"/>
				<v:ud v:nameU="TopRightOffset" v:prompt="" v:val="VT0(0.15748031496063):1"/>
				<v:ud v:nameU="BotLeftOffset" v:prompt="" v:val="VT0(0.15748031496063):1"/>
				<v:ud v:nameU="BotRightOffset" v:prompt="" v:val="VT0(0.15748031496063):1"/>
			</v:userDefs>
			<v:textBlock v:margins="rect(2,2,2,2)"/>
			<v:textRect cx="62.0353" cy="153.363" width="124.08" height="22.6772"/>
			<path d="M11.34 164.7 L112.73 164.7 A11.3384 11.3384 -180 0 0 124.07 153.36 A11.3384 11.3384 -180 0 0 112.73 142.02 L11.34
						 142.02 A11.3384 11.3384 -180 0 0 0 153.36 A11.3384 11.3384 -180 0 0 11.34 164.7 Z" class="st1"/>
			<text x="33.87" y="155.76" class="st2" v:langID="1033"><v:paragraph v:horizAlign="1"/><v:tabList/>Transporte total</text>		</g>
		<g id="shape3-10" v:mID="3" v:groupContext="shape" transform="translate(421.276,-90.9357)">
			<title>Rounded Rectangle.3</title>
			<desc>Transporte por arrastre</desc>
			<v:userDefs>
				<v:ud v:nameU="CTypeTopLeftSnip" v:prompt="" v:val="VT0(0):5"/>
				<v:ud v:nameU="CTypeTopRightSnip" v:prompt="" v:val="VT0(0):5"/>
				<v:ud v:nameU="CTypeBotLeftSnip" v:prompt="" v:val="VT0(0):5"/>
				<v:ud v:nameU="CTypeBotRightSnip" v:prompt="" v:val="VT0(0):5"/>
				<v:ud v:nameU="CornerLockHoriz" v:prompt="" v:val="VT0(1):5"/>
				<v:ud v:nameU="CornerLockVert" v:prompt="" v:val="VT0(1):5"/>
				<v:ud v:nameU="CornerLockDiag" v:prompt="" v:val="VT0(0):5"/>
				<v:ud v:nameU="TopLeftOffset" v:prompt="" v:val="VT0(0.15748031496063):24"/>
				<v:ud v:nameU="TopRightOffset" v:prompt="" v:val="VT0(0.15748031496063):24"/>
				<v:ud v:nameU="BotLeftOffset" v:prompt="" v:val="VT0(0.15748031496063):24"/>
				<v:ud v:nameU="BotRightOffset" v:prompt="" v:val="VT0(0.15748031496063):24"/>
				<v:ud v:nameU="visVersion" v:prompt="" v:val="VT0(15):26"/>
				<v:ud v:nameU="TopLeftOffset" v:prompt="" v:val="VT0(0.15748031496063):1"/>
				<v:ud v:nameU="TopRightOffset" v:prompt="" v:val="VT0(0.15748031496063):1"/>
				<v:ud v:nameU="BotLeftOffset" v:prompt="" v:val="VT0(0.15748031496063):1"/>
				<v:ud v:nameU="BotRightOffset" v:prompt="" v:val="VT0(0.15748031496063):1"/>
			</v:userDefs>
			<v:textBlock v:margins="rect(2,2,2,2)"/>
			<v:textRect cx="62.0353" cy="153.363" width="124.08" height="22.6772"/>
			<path d="M11.34 164.7 L112.73 164.7 A11.3384 11.3384 -180 0 0 124.07 153.36 A11.3384 11.3384 -180 0 0 112.73 142.02 L11.34
						 142.02 A11.3384 11.3384 -180 0 0 0 153.36 A11.3384 11.3384 -180 0 0 11.34 164.7 Z" class="st1"/>
			<text x="21.36" y="155.76" class="st2" v:langID="1033"><v:paragraph v:horizAlign="1"/><v:tabList/>Transporte por arrastre</text>		</g>
		<g id="shape5-13" v:mID="5" v:groupContext="shape" transform="translate(9.84707,-48.1857)">
			<title>Rounded Rectangle.189</title>
			<desc>Ackers and White</desc>
			<v:userDefs>
				<v:ud v:nameU="CTypeTopLeftSnip" v:prompt="" v:val="VT0(0):5"/>
				<v:ud v:nameU="CTypeTopRightSnip" v:prompt="" v:val="VT0(0):5"/>
				<v:ud v:nameU="CTypeBotLeftSnip" v:prompt="" v:val="VT0(0):5"/>
				<v:ud v:nameU="CTypeBotRightSnip" v:prompt="" v:val="VT0(0):5"/>
				<v:ud v:nameU="CornerLockHoriz" v:prompt="" v:val="VT0(1):5"/>
				<v:ud v:nameU="CornerLockVert" v:prompt="" v:val="VT0(1):5"/>
				<v:ud v:nameU="CornerLockDiag" v:prompt="" v:val="VT0(0):5"/>
				<v:ud v:nameU="TopLeftOffset" v:prompt="" v:val="VT0(0.15748031496063):24"/>
				<v:ud v:nameU="TopRightOffset" v:prompt="" v:val="VT0(0.15748031496063):24"/>
				<v:ud v:nameU="BotLeftOffset" v:prompt="" v:val="VT0(0.15748031496063):24"/>
				<v:ud v:nameU="BotRightOffset" v:prompt="" v:val="VT0(0.15748031496063):24"/>
				<v:ud v:nameU="visVersion" v:prompt="" v:val="VT0(15):26"/>
			</v:userDefs>
			<v:textBlock v:margins="rect(4,4,4,4)"/>
			<v:textRect cx="39.685" cy="153.363" width="79.38" height="22.6772"/>
			<path d="M11.34 164.7 L68.03 164.7 A11.3384 11.3384 -180 0 0 79.37 153.36 A11.3384 11.3384 -180 0 0 68.03 142.02 L11.34
						 142.02 A11.3384 11.3384 -180 0 0 0 153.36 A11.3384 11.3384 -180 0 0 11.34 164.7 Z" class="st4"/>
			<text x="8.83" y="155.76" class="st2" v:langID="9226"><v:paragraph v:horizAlign="1"/><v:tabList/>Ackers and White</text>		</g>
		<g id="shape9-18" v:mID="9" v:groupContext="shape" v:layerMember="0" transform="translate(338.347,-140.524)">
			<title>Dynamic connector</title>
			<path d="M0 164.7 L0 171.45 A6.75 6.75 0 0 1 -6.75 178.2 L-136.33 178.2 A6.70571 6.70571 -180 0 0 -143.04 184.91 L-143.04
						 187.25" class="st6"/>
		</g>
		<g id="shape10-24" v:mID="10" v:groupContext="shape" v:layerMember="0" transform="translate(338.347,-140.524)">
			<title>Dynamic connector.10</title>
			<path d="M0 164.7 L0 171.45 A6.75 6.75 -180 0 0 6.75 178.2 L138.26 178.2 A6.70571 6.70571 0 0 1 144.96 184.91 L144.96
						 187.25" class="st6"/>
		</g>
		<g id="shape1003-29" v:mID="1003" v:groupContext="shape" transform="translate(60.977,-9.84707)">
			<title>Rounded Rectangle.1003</title>
			<desc>Engelund-Hansen</desc>
			<v:userDefs>
				<v:ud v:nameU="CTypeTopLeftSnip" v:prompt="" v:val="VT0(0):5"/>
				<v:ud v:nameU="CTypeTopRightSnip" v:prompt="" v:val="VT0(0):5"/>
				<v:ud v:nameU="CTypeBotLeftSnip" v:prompt="" v:val="VT0(0):5"/>
				<v:ud v:nameU="CTypeBotRightSnip" v:prompt="" v:val="VT0(0):5"/>
				<v:ud v:nameU="CornerLockHoriz" v:prompt="" v:val="VT0(1):5"/>
				<v:ud v:nameU="CornerLockVert" v:prompt="" v:val="VT0(1):5"/>
				<v:ud v:nameU="CornerLockDiag" v:prompt="" v:val="VT0(0):5"/>
				<v:ud v:nameU="TopLeftOffset" v:prompt="" v:val="VT0(0.15748031496063):24"/>
				<v:ud v:nameU="TopRightOffset" v:prompt="" v:val="VT0(0.15748031496063):24"/>
				<v:ud v:nameU="BotLeftOffset" v:prompt="" v:val="VT0(0.15748031496063):24"/>
				<v:ud v:nameU="BotRightOffset" v:prompt="" v:val="VT0(0.15748031496063):24"/>
				<v:ud v:nameU="visVersion" v:prompt="" v:val="VT0(15):26"/>
			</v:userDefs>
			<v:textBlock v:margins="rect(4,4,4,4)"/>
			<v:textRect cx="39.685" cy="153.363" width="79.38" height="22.6772"/>
			<path d="M11.34 164.7 L68.03 164.7 A11.3384 11.3384 -180 0 0 79.37 153.36 A11.3384 11.3384 -180 0 0 68.03 142.02 L11.34
						 142.02 A11.3384 11.3384 -180 0 0 0 153.36 A11.3384 11.3384 -180 0 0 11.34 164.7 Z" class="st4"/>
			<text x="8.31" y="155.76" class="st2" v:langID="9226"><v:paragraph v:horizAlign="1"/><v:tabList/>Engelund-Hansen</text>		</g>
		<g id="shape1004-33" v:mID="1004" v:groupContext="shape" transform="translate(121.233,-48.1857)">
			<title>Rounded Rectangle.1004</title>
			<desc>Laursen-Copeland</desc>
			<v:userDefs>
				<v:ud v:nameU="CTypeTopLeftSnip" v:prompt="" v:val="VT0(0):5"/>
				<v:ud v:nameU="CTypeTopRightSnip" v:prompt="" v:val="VT0(0):5"/>
				<v:ud v:nameU="CTypeBotLeftSnip" v:prompt="" v:val="VT0(0):5"/>
				<v:ud v:nameU="CTypeBotRightSnip" v:prompt="" v:val="VT0(0):5"/>
				<v:ud v:nameU="CornerLockHoriz" v:prompt="" v:val="VT0(1):5"/>
				<v:ud v:nameU="CornerLockVert" v:prompt="" v:val="VT0(1):5"/>
				<v:ud v:nameU="CornerLockDiag" v:prompt="" v:val="VT0(0):5"/>
				<v:ud v:nameU="TopLeftOffset" v:prompt="" v:val="VT0(0.15748031496063):24"/>
				<v:ud v:nameU="TopRightOffset" v:prompt="" v:val="VT0(0.15748031496063):24"/>
				<v:ud v:nameU="BotLeftOffset" v:prompt="" v:val="VT0(0.15748031496063):24"/>
				<v:ud v:nameU="BotRightOffset" v:prompt="" v:val="VT0(0.15748031496063):24"/>
				<v:ud v:nameU="visVersion" v:prompt="" v:val="VT0(15):26"/>
			</v:userDefs>
			<v:textBlock v:margins="rect(4,4,4,4)"/>
			<v:textRect cx="39.685" cy="153.363" width="79.38" height="22.6772"/>
			<path d="M11.34 164.7 L68.03 164.7 A11.3384 11.3384 -180 0 0 79.37 153.36 A11.3384 11.3384 -180 0 0 68.03 142.02 L11.34
						 142.02 A11.3384 11.3384 -180 0 0 0 153.36 A11.3384 11.3384 -180 0 0 11.34 164.7 Z" class="st4"/>
			<text x="7.57" y="155.76" class="st2" v:langID="9226"><v:paragraph v:horizAlign="1"/><v:tabList/>Laursen-Copeland</text>		</g>
		<g id="shape1005-37" v:mID="1005" v:groupContext="shape" transform="translate(401.347,-50.5242)">
			<title>Rounded Rectangle.1005</title>
			<desc>Meyer-Peter and Müller (MPM)</desc>
			<v:userDefs>
				<v:ud v:nameU="CTypeTopLeftSnip" v:prompt="" v:val="VT0(0):5"/>
				<v:ud v:nameU="CTypeTopRightSnip" v:prompt="" v:val="VT0(0):5"/>
				<v:ud v:nameU="CTypeBotLeftSnip" v:prompt="" v:val="VT0(0):5"/>
				<v:ud v:nameU="CTypeBotRightSnip" v:prompt="" v:val="VT0(0):5"/>
				<v:ud v:nameU="CornerLockHoriz" v:prompt="" v:val="VT0(1):5"/>
				<v:ud v:nameU="CornerLockVert" v:prompt="" v:val="VT0(1):5"/>
				<v:ud v:nameU="CornerLockDiag" v:prompt="" v:val="VT0(0):5"/>
				<v:ud v:nameU="TopLeftOffset" v:prompt="" v:val="VT0(0.15748031496063):24"/>
				<v:ud v:nameU="TopRightOffset" v:prompt="" v:val="VT0(0.15748031496063):24"/>
				<v:ud v:nameU="BotLeftOffset" v:prompt="" v:val="VT0(0.15748031496063):24"/>
				<v:ud v:nameU="BotRightOffset" v:prompt="" v:val="VT0(0.15748031496063):24"/>
				<v:ud v:nameU="visVersion" v:prompt="" v:val="VT0(15):26"/>
			</v:userDefs>
			<v:textBlock v:margins="rect(4,4,4,4)"/>
			<v:textRect cx="39.685" cy="153.363" width="79.38" height="22.6772"/>
			<path d="M11.34 164.7 L68.03 164.7 A11.3384 11.3384 -180 0 0 79.37 153.36 A11.3384 11.3384 -180 0 0 68.03 142.02 L11.34
						 142.02 A11.3384 11.3384 -180 0 0 0 153.36 A11.3384 11.3384 -180 0 0 11.34 164.7 Z" class="st4"/>
			<text x="10.06" y="150.96" class="st2" v:langID="1033"><v:paragraph v:horizAlign="1"/><v:tabList/>Meyer-Peter and <tspan
						x="15.48" dy="1.2em" class="st3">Müller (MPM)</tspan></text>		</g>
		<g id="shape1006-42" v:mID="1006" v:groupContext="shape" transform="translate(173.477,-9.84707)">
			<title>Rounded Rectangle.1006</title>
			<desc>Toffaleti</desc>
			<v:userDefs>
				<v:ud v:nameU="CTypeTopLeftSnip" v:prompt="" v:val="VT0(0):5"/>
				<v:ud v:nameU="CTypeTopRightSnip" v:prompt="" v:val="VT0(0):5"/>
				<v:ud v:nameU="CTypeBotLeftSnip" v:prompt="" v:val="VT0(0):5"/>
				<v:ud v:nameU="CTypeBotRightSnip" v:prompt="" v:val="VT0(0):5"/>
				<v:ud v:nameU="CornerLockHoriz" v:prompt="" v:val="VT0(1):5"/>
				<v:ud v:nameU="CornerLockVert" v:prompt="" v:val="VT0(1):5"/>
				<v:ud v:nameU="CornerLockDiag" v:prompt="" v:val="VT0(0):5"/>
				<v:ud v:nameU="TopLeftOffset" v:prompt="" v:val="VT0(0.15748031496063):24"/>
				<v:ud v:nameU="TopRightOffset" v:prompt="" v:val="VT0(0.15748031496063):24"/>
				<v:ud v:nameU="BotLeftOffset" v:prompt="" v:val="VT0(0.15748031496063):24"/>
				<v:ud v:nameU="BotRightOffset" v:prompt="" v:val="VT0(0.15748031496063):24"/>
				<v:ud v:nameU="visVersion" v:prompt="" v:val="VT0(15):26"/>
			</v:userDefs>
			<v:textBlock v:margins="rect(4,4,4,4)"/>
			<v:textRect cx="39.685" cy="153.363" width="79.38" height="22.6772"/>
			<path d="M11.34 164.7 L68.03 164.7 A11.3384 11.3384 -180 0 0 79.37 153.36 A11.3384 11.3384 -180 0 0 68.03 142.02 L11.34
						 142.02 A11.3384 11.3384 -180 0 0 0 153.36 A11.3384 11.3384 -180 0 0 11.34 164.7 Z" class="st4"/>
			<text x="25.32" y="155.76" class="st2" v:langID="9226"><v:paragraph v:horizAlign="1"/><v:tabList/>Toffaleti</text>		</g>
		<g id="shape1007-46" v:mID="1007" v:groupContext="shape" transform="translate(285.977,-9.84707)">
			<title>Rounded Rectangle.1007</title>
			<desc>Yang</desc>
			<v:userDefs>
				<v:ud v:nameU="CTypeTopLeftSnip" v:prompt="" v:val="VT0(0):5"/>
				<v:ud v:nameU="CTypeTopRightSnip" v:prompt="" v:val="VT0(0):5"/>
				<v:ud v:nameU="CTypeBotLeftSnip" v:prompt="" v:val="VT0(0):5"/>
				<v:ud v:nameU="CTypeBotRightSnip" v:prompt="" v:val="VT0(0):5"/>
				<v:ud v:nameU="CornerLockHoriz" v:prompt="" v:val="VT0(1):5"/>
				<v:ud v:nameU="CornerLockVert" v:prompt="" v:val="VT0(1):5"/>
				<v:ud v:nameU="CornerLockDiag" v:prompt="" v:val="VT0(0):5"/>
				<v:ud v:nameU="TopLeftOffset" v:prompt="" v:val="VT0(0.15748031496063):24"/>
				<v:ud v:nameU="TopRightOffset" v:prompt="" v:val="VT0(0.15748031496063):24"/>
				<v:ud v:nameU="BotLeftOffset" v:prompt="" v:val="VT0(0.15748031496063):24"/>
				<v:ud v:nameU="BotRightOffset" v:prompt="" v:val="VT0(0.15748031496063):24"/>
				<v:ud v:nameU="visVersion" v:prompt="" v:val="VT0(15):26"/>
			</v:userDefs>
			<v:textBlock v:margins="rect(4,4,4,4)"/>
			<v:textRect cx="39.685" cy="153.363" width="79.38" height="22.6772"/>
			<path d="M11.34 164.7 L68.03 164.7 A11.3384 11.3384 -180 0 0 79.37 153.36 A11.3384 11.3384 -180 0 0 68.03 142.02 L11.34
						 142.02 A11.3384 11.3384 -180 0 0 0 153.36 A11.3384 11.3384 -180 0 0 11.34 164.7 Z" class="st4"/>
			<text x="30.82" y="155.76" class="st2" v:langID="9226"><v:paragraph v:horizAlign="1"/><v:tabList/>Yang</text>		</g>
		<g id="shape1008-50" v:mID="1008" v:groupContext="shape" transform="translate(501.162,-50.5242)">
			<title>Rounded Rectangle.1008</title>
			<desc>Wilcock and Crowe</desc>
			<v:userDefs>
				<v:ud v:nameU="CTypeTopLeftSnip" v:prompt="" v:val="VT0(0):5"/>
				<v:ud v:nameU="CTypeTopRightSnip" v:prompt="" v:val="VT0(0):5"/>
				<v:ud v:nameU="CTypeBotLeftSnip" v:prompt="" v:val="VT0(0):5"/>
				<v:ud v:nameU="CTypeBotRightSnip" v:prompt="" v:val="VT0(0):5"/>
				<v:ud v:nameU="CornerLockHoriz" v:prompt="" v:val="VT0(1):5"/>
				<v:ud v:nameU="CornerLockVert" v:prompt="" v:val="VT0(1):5"/>
				<v:ud v:nameU="CornerLockDiag" v:prompt="" v:val="VT0(0):5"/>
				<v:ud v:nameU="TopLeftOffset" v:prompt="" v:val="VT0(0.15748031496063):24"/>
				<v:ud v:nameU="TopRightOffset" v:prompt="" v:val="VT0(0.15748031496063):24"/>
				<v:ud v:nameU="BotLeftOffset" v:prompt="" v:val="VT0(0.15748031496063):24"/>
				<v:ud v:nameU="BotRightOffset" v:prompt="" v:val="VT0(0.15748031496063):24"/>
				<v:ud v:nameU="visVersion" v:prompt="" v:val="VT0(15):26"/>
			</v:userDefs>
			<v:textBlock v:margins="rect(4,4,4,4)"/>
			<v:textRect cx="39.685" cy="153.363" width="79.38" height="22.6772"/>
			<path d="M11.34 164.7 L68.03 164.7 A11.3384 11.3384 -180 0 0 79.37 153.36 A11.3384 11.3384 -180 0 0 68.03 142.02 L11.34
						 142.02 A11.3384 11.3384 -180 0 0 0 153.36 A11.3384 11.3384 -180 0 0 11.34 164.7 Z" class="st4"/>
			<text x="5.94" y="155.76" class="st2" v:langID="9226"><v:paragraph v:horizAlign="1"/><v:tabList/>Wilcock and Crowe</text>		</g>
		<g id="shape1020-54" v:mID="1020" v:groupContext="shape" transform="translate(232.618,-48.1857)">
			<title>Rounded Rectangle.1020</title>
			<desc>MPM-Toffaleti</desc>
			<v:userDefs>
				<v:ud v:nameU="CTypeTopLeftSnip" v:prompt="" v:val="VT0(0):5"/>
				<v:ud v:nameU="CTypeTopRightSnip" v:prompt="" v:val="VT0(0):5"/>
				<v:ud v:nameU="CTypeBotLeftSnip" v:prompt="" v:val="VT0(0):5"/>
				<v:ud v:nameU="CTypeBotRightSnip" v:prompt="" v:val="VT0(0):5"/>
				<v:ud v:nameU="CornerLockHoriz" v:prompt="" v:val="VT0(1):5"/>
				<v:ud v:nameU="CornerLockVert" v:prompt="" v:val="VT0(1):5"/>
				<v:ud v:nameU="CornerLockDiag" v:prompt="" v:val="VT0(0):5"/>
				<v:ud v:nameU="TopLeftOffset" v:prompt="" v:val="VT0(0.15748031496063):24"/>
				<v:ud v:nameU="TopRightOffset" v:prompt="" v:val="VT0(0.15748031496063):24"/>
				<v:ud v:nameU="BotLeftOffset" v:prompt="" v:val="VT0(0.15748031496063):24"/>
				<v:ud v:nameU="BotRightOffset" v:prompt="" v:val="VT0(0.15748031496063):24"/>
				<v:ud v:nameU="visVersion" v:prompt="" v:val="VT0(15):26"/>
			</v:userDefs>
			<v:textBlock v:margins="rect(4,4,4,4)"/>
			<v:textRect cx="39.685" cy="153.363" width="79.38" height="22.6772"/>
			<path d="M11.34 164.7 L68.03 164.7 A11.3384 11.3384 -180 0 0 79.37 153.36 A11.3384 11.3384 -180 0 0 68.03 142.02 L11.34
						 142.02 A11.3384 11.3384 -180 0 0 0 153.36 A11.3384 11.3384 -180 0 0 11.34 164.7 Z" class="st4"/>
			<text x="14.3" y="155.76" class="st2" v:langID="1033"><v:paragraph v:horizAlign="1"/><v:tabList/>MPM-Toffaleti</text>		</g>
		<g id="shape1021-58" v:mID="1021" v:groupContext="shape" v:layerMember="0" transform="translate(195.312,-90.9357)">
			<title>Dynamic connector.1021</title>
			<path d="M0 164.7 L0 168.08 A3.375 3.375 0 0 1 -3.37 171.45 L-139.12 171.45 A6.66142 6.66142 -180 0 0 -145.78 178.11
						 L-145.78 180.41" class="st6"/>
		</g>
		<g id="shape1022-63" v:mID="1022" v:groupContext="shape" v:layerMember="0" transform="translate(195.312,-90.9357)">
			<title>Dynamic connector.1022</title>
			<path d="M0 164.7 L0 168.08 A3.375 3.375 0 0 1 -3.37 171.45 L-68.82 171.45 A25.8307 25.8307 -180 0 0 -94.65 197.28 L-94.65
						 218.75" class="st6"/>
		</g>
		<g id="shape1023-68" v:mID="1023" v:groupContext="shape" v:layerMember="0" transform="translate(195.312,-90.9357)">
			<title>Dynamic connector.1023</title>
			<path d="M0 164.7 L0 168.08 A3.375 3.375 0 0 1 -3.37 171.45 L-27.73 171.45 A6.66142 6.66142 -180 0 0 -34.39 178.11 L-34.39
						 180.41" class="st6"/>
		</g>
		<g id="shape1024-73" v:mID="1024" v:groupContext="shape" v:layerMember="0" transform="translate(195.237,-90.9357)">
			<title>Dynamic connector.1024</title>
			<path d="M0.07 164.7 L0.07 168.08 A3.375 3.375 -180 0 0 3.45 171.45 L3.45 171.45 A14.4753 14.4753 0 0 1 17.93 185.93
						 L17.93 218.75" class="st6"/>
		</g>
		<g id="shape1025-78" v:mID="1025" v:groupContext="shape" v:layerMember="0" transform="translate(195.312,-90.9357)">
			<title>Dynamic connector.1025</title>
			<path d="M0 164.7 L0 168.08 A3.375 3.375 -180 0 0 3.38 171.45 L70.33 171.45 A6.66142 6.66142 0 0 1 76.99 178.11 L76.99
						 180.41" class="st6"/>
		</g>
		<g id="shape1026-83" v:mID="1026" v:groupContext="shape" v:layerMember="0" transform="translate(195.312,-90.9357)">
			<title>Dynamic connector.1026</title>
			<path d="M0 164.7 L0 168.08 A3.375 3.375 -180 0 0 3.38 171.45 L104.52 171.45 A25.8307 25.8307 0 0 1 130.35 197.28 L130.35
						 218.75" class="st6"/>
		</g>
		<g id="shape1027-88" v:mID="1027" v:groupContext="shape" v:layerMember="0" transform="translate(483.312,-91.0685)">
			<title>Dynamic connector.1027</title>
			<path d="M0 164.83 L0 168.21 A3.375 3.375 0 0 1 -3.38 171.58 L-36.79 171.58 A5.49213 5.49213 -180 0 0 -42.28 177.08 L-42.28
						 178.2" class="st6"/>
		</g>
		<g id="shape1029-93" v:mID="1029" v:groupContext="shape" v:layerMember="0" transform="translate(483.312,-91.0685)">
			<title>Dynamic connector.1029</title>
			<path d="M0 164.83 L0 168.21 A3.375 3.375 -180 0 0 3.38 171.58 L52.04 171.58 A5.49213 5.49213 0 0 1 57.54 177.08 L57.54
						 178.2" class="st6"/>
		</g>
	</g>
</svg>
